<svg width="143" height="64" viewBox="0 0 143 64" fill="none" xmlns="http://www.w3.org/2000/svg">
<rect width="143" height="64" rx="8" fill="black"/>
<path d="M25.3203 31.3125H30.25V37.4688C29.6615 37.6719 28.987 37.8385 28.2266 37.9688C27.4661 38.0938 26.6693 38.1562 25.8359 38.1562C24.737 38.1562 23.7734 37.9427 22.9453 37.5156C22.1172 37.0885 21.4714 36.4401 21.0078 35.5703C20.5443 34.6953 20.3125 33.5911 20.3125 32.2578C20.3125 31.0599 20.5417 30.026 21 29.1562C21.4583 28.2812 22.1328 27.6068 23.0234 27.1328C23.9193 26.6536 25.0156 26.4141 26.3125 26.4141C27.026 26.4141 27.7031 26.4818 28.3438 26.6172C28.9844 26.7526 29.5417 26.9245 30.0156 27.1328L29.0391 29.5547C28.6276 29.3516 28.2005 29.2005 27.7578 29.1016C27.3151 28.9974 26.8385 28.9453 26.3281 28.9453C25.6458 28.9453 25.0964 29.099 24.6797 29.4062C24.2682 29.7135 23.9688 30.125 23.7812 30.6406C23.5938 31.151 23.5 31.7161 23.5 32.3359C23.5 33.0443 23.599 33.6432 23.7969 34.1328C24 34.6172 24.2943 34.987 24.6797 35.2422C25.0703 35.4922 25.5417 35.6172 26.0938 35.6172C26.276 35.6172 26.4974 35.6042 26.7578 35.5781C27.0234 35.5521 27.224 35.5208 27.3594 35.4844V33.6953H25.3203V31.3125ZM36.3828 28.9922C37.2422 28.9922 37.9844 29.1432 38.6094 29.4453C39.2344 29.7422 39.7161 30.1901 40.0547 30.7891C40.3932 31.388 40.5625 32.138 40.5625 33.0391V34.3984H35.1016C35.1276 34.862 35.2995 35.2422 35.6172 35.5391C35.9401 35.8359 36.4141 35.9844 37.0391 35.9844C37.5911 35.9844 38.0964 35.9297 38.5547 35.8203C39.0182 35.7109 39.4948 35.5417 39.9844 35.3125V37.5078C39.5573 37.7318 39.0911 37.8958 38.5859 38C38.0807 38.1042 37.4427 38.1562 36.6719 38.1562C35.7812 38.1562 34.9844 37.9974 34.2812 37.6797C33.5781 37.362 33.0234 36.8698 32.6172 36.2031C32.2161 35.5365 32.0156 34.6797 32.0156 33.6328C32.0156 32.5703 32.1979 31.6979 32.5625 31.0156C32.9271 30.3281 33.4375 29.8203 34.0938 29.4922C34.75 29.1589 35.513 28.9922 36.3828 28.9922ZM36.4922 31.0703C36.1328 31.0703 35.8307 31.1849 35.5859 31.4141C35.3464 31.638 35.2057 31.9922 35.1641 32.4766H37.7891C37.7839 32.2161 37.7318 31.9792 37.6328 31.7656C37.5339 31.5521 37.388 31.3828 37.1953 31.2578C37.0078 31.1328 36.7734 31.0703 36.4922 31.0703ZM46.625 35.7422C46.901 35.7422 47.1536 35.7135 47.3828 35.6562C47.612 35.599 47.8516 35.526 48.1016 35.4375V37.6641C47.7682 37.8099 47.4141 37.9271 47.0391 38.0156C46.6693 38.1094 46.1953 38.1562 45.6172 38.1562C45.0443 38.1562 44.5391 38.0677 44.1016 37.8906C43.6641 37.7083 43.3229 37.3958 43.0781 36.9531C42.8385 36.5052 42.7188 35.8828 42.7188 35.0859V31.4375H41.6484V30.1953L43.0078 29.2344L43.7969 27.375H45.7969V29.1484H47.9688V31.4375H45.7969V34.8828C45.7969 35.1693 45.8698 35.3854 46.0156 35.5312C46.1615 35.6719 46.3646 35.7422 46.625 35.7422ZM53.9844 38V26.5781H57.0859V38H53.9844ZM64.9219 28.9922C65.8333 28.9922 66.5781 29.25 67.1562 29.7656C67.7344 30.2812 68.0234 31.1068 68.0234 32.2422V38H64.9688V33.1719C64.9688 32.5833 64.8828 32.1406 64.7109 31.8438C64.5443 31.5417 64.2734 31.3906 63.8984 31.3906C63.3203 31.3906 62.9323 31.6276 62.7344 32.1016C62.5365 32.5703 62.4375 33.2448 62.4375 34.125V38H59.3828V29.1484H61.6875L62.1016 30.3203H62.2188C62.4062 30.0391 62.6302 29.7995 62.8906 29.6016C63.151 29.4036 63.4505 29.2526 63.7891 29.1484C64.1276 29.0443 64.5052 28.9922 64.9219 28.9922ZM79.4766 38H76.3906V29.1016H73.6016V26.5781H82.2578V29.1016H79.4766V38ZM92.1641 33.5547C92.1641 34.2943 92.0625 34.9505 91.8594 35.5234C91.6562 36.0964 91.362 36.5781 90.9766 36.9688C90.5911 37.3594 90.125 37.6562 89.5781 37.8594C89.0312 38.0573 88.4141 38.1562 87.7266 38.1562C87.0859 38.1562 86.4974 38.0573 85.9609 37.8594C85.4297 37.6562 84.9661 37.3594 84.5703 36.9688C84.1745 36.5781 83.8672 36.0964 83.6484 35.5234C83.4349 34.9505 83.3281 34.2943 83.3281 33.5547C83.3281 32.5755 83.5052 31.7474 83.8594 31.0703C84.2188 30.3932 84.7292 29.8776 85.3906 29.5234C86.0573 29.1693 86.8516 28.9922 87.7734 28.9922C88.6224 28.9922 89.3776 29.1693 90.0391 29.5234C90.7005 29.8776 91.2188 30.3932 91.5938 31.0703C91.974 31.7474 92.1641 32.5755 92.1641 33.5547ZM86.4297 33.5547C86.4297 34.0599 86.474 34.487 86.5625 34.8359C86.651 35.1797 86.7917 35.4427 86.9844 35.625C87.1823 35.8021 87.4401 35.8906 87.7578 35.8906C88.0755 35.8906 88.3281 35.8021 88.5156 35.625C88.7031 35.4427 88.8385 35.1797 88.9219 34.8359C89.0104 34.487 89.0547 34.0599 89.0547 33.5547C89.0547 33.0495 89.0104 32.6276 88.9219 32.2891C88.8385 31.9505 88.7005 31.6953 88.5078 31.5234C88.3203 31.3516 88.0651 31.2656 87.7422 31.2656C87.2786 31.2656 86.9427 31.4583 86.7344 31.8438C86.5312 32.2292 86.4297 32.7995 86.4297 33.5547ZM102.523 29.1484V38H100.219L99.8359 36.8984H99.6562C99.474 37.1953 99.2422 37.4375 98.9609 37.625C98.6849 37.8073 98.3776 37.9401 98.0391 38.0234C97.7005 38.112 97.349 38.1562 96.9844 38.1562C96.4062 38.1562 95.8828 38.0443 95.4141 37.8203C94.9505 37.5964 94.5807 37.2448 94.3047 36.7656C94.0339 36.2865 93.8984 35.6693 93.8984 34.9141V29.1484H96.9531V33.9844C96.9531 34.5573 97.0339 34.9948 97.1953 35.2969C97.362 35.5938 97.6328 35.7422 98.0078 35.7422C98.3932 35.7422 98.6901 35.638 98.8984 35.4297C99.112 35.2214 99.2604 34.9141 99.3438 34.5078C99.4271 34.1016 99.4688 33.6068 99.4688 33.0234V29.1484H102.523ZM108.664 38.1562C107.768 38.1562 106.99 37.9974 106.328 37.6797C105.667 37.3568 105.154 36.862 104.789 36.1953C104.43 35.5234 104.25 34.6641 104.25 33.6172C104.25 32.5443 104.451 31.6667 104.852 30.9844C105.258 30.3021 105.812 29.7995 106.516 29.4766C107.219 29.1536 108.016 28.9922 108.906 28.9922C109.448 28.9922 109.961 29.0521 110.445 29.1719C110.935 29.2917 111.388 29.4557 111.805 29.6641L110.906 31.9219C110.542 31.7604 110.201 31.6328 109.883 31.5391C109.57 31.4401 109.245 31.3906 108.906 31.3906C108.599 31.3906 108.328 31.4714 108.094 31.6328C107.859 31.7943 107.677 32.0391 107.547 32.3672C107.417 32.6901 107.352 33.1016 107.352 33.6016C107.352 34.112 107.417 34.5234 107.547 34.8359C107.682 35.1484 107.867 35.375 108.102 35.5156C108.341 35.6562 108.615 35.7266 108.922 35.7266C109.365 35.7266 109.805 35.6589 110.242 35.5234C110.685 35.3828 111.104 35.1901 111.5 34.9453V37.375C111.135 37.6146 110.724 37.8047 110.266 37.9453C109.807 38.0859 109.273 38.1562 108.664 38.1562ZM116.312 25.8438V27.5703C116.312 28.2266 116.297 28.7786 116.266 29.2266C116.24 29.6693 116.214 30.0078 116.188 30.2422H116.328C116.521 29.9349 116.74 29.6901 116.984 29.5078C117.229 29.3255 117.5 29.1953 117.797 29.1172C118.094 29.0339 118.417 28.9922 118.766 28.9922C119.349 28.9922 119.875 29.1042 120.344 29.3281C120.818 29.5521 121.195 29.9036 121.477 30.3828C121.758 30.8568 121.898 31.4766 121.898 32.2422V38H118.828V33.1719C118.828 32.5833 118.742 32.1406 118.57 31.8438C118.398 31.5417 118.133 31.3906 117.773 31.3906C117.404 31.3906 117.112 31.4974 116.898 31.7109C116.685 31.9193 116.534 32.2266 116.445 32.6328C116.357 33.0339 116.312 33.526 116.312 34.1094V38H113.258V25.8438H116.312Z" fill="white"/>
</svg>
