<svg width="64" height="64" viewBox="0 0 64 64" fill="none" xmlns="http://www.w3.org/2000/svg">
<rect x="0.666667" y="0.666667" width="62.6667" height="62.6667" rx="10" fill="white"/>
<rect x="0.666667" y="0.666667" width="62.6667" height="62.6667" rx="10" stroke="black" stroke-width="1.33333"/>
<path d="M46.9313 18.7222C44.1857 17.4619 41.2411 16.5332 38.162 16.0025C38.1067 15.9915 38.0495 16.0173 38.0219 16.0689C37.6423 16.7433 37.224 17.6203 36.9291 18.3113C33.6178 17.8157 30.3232 17.8157 27.08 18.3113C26.7871 17.6056 26.3522 16.7414 25.9707 16.0689C25.9413 16.0191 25.886 15.9933 25.8289 16.0025C22.7516 16.5332 19.807 17.46 17.0596 18.7222C17.0356 18.7333 17.0153 18.7499 17.0024 18.772C11.4173 27.1173 9.88598 35.2561 10.6378 43.2937C10.6415 43.3324 10.6636 43.3711 10.693 43.395C14.3784 46.1019 17.9477 47.7436 21.4506 48.8326C21.5059 48.8492 21.5667 48.8289 21.6018 48.7829C22.431 47.6515 23.1699 46.4575 23.8019 45.2026C23.8388 45.1289 23.8019 45.0423 23.7263 45.0129C22.5544 44.5688 21.4396 44.0271 20.3653 43.4116C20.2806 43.3619 20.2731 43.2402 20.3524 43.1831C20.579 43.0136 20.8038 42.8386 21.0194 42.6598C21.0581 42.6267 21.1135 42.6211 21.1595 42.6414C28.2115 45.8605 35.8438 45.8605 42.8128 42.6414C42.8589 42.6193 42.9124 42.6267 42.9529 42.658C43.1685 42.8349 43.3952 43.0136 43.6218 43.1831C43.6992 43.2421 43.6955 43.3619 43.6107 43.4116C42.5383 44.0381 41.4216 44.5688 40.2478 45.011C40.1723 45.0405 40.1373 45.1289 40.1742 45.2026C40.8209 46.4556 41.5598 47.6497 42.3724 48.781C42.4056 48.8289 42.4683 48.8492 42.5236 48.8326C46.0431 47.7436 49.6142 46.1 53.2996 43.395C53.3327 43.3711 53.353 43.3361 53.3548 43.2955C54.2541 34.0013 51.8494 25.9288 46.9847 18.7738C46.9736 18.7499 46.9533 18.7333 46.9294 18.7222H46.9313ZM24.8559 38.3997C22.7331 38.3997 20.9844 36.4502 20.9844 34.0566C20.9844 31.663 22.6999 29.7135 24.8559 29.7135C27.0118 29.7135 28.7624 31.6796 28.7274 34.0566C28.7274 36.4502 27.0118 38.3997 24.8559 38.3997ZM39.1717 38.3997C37.049 38.3997 35.3002 36.4502 35.3002 34.0566C35.3002 31.663 37.0158 29.7135 39.1717 29.7135C41.3277 29.7135 43.0782 31.6796 43.0432 34.0566C43.0432 36.4502 41.3443 38.3997 39.1717 38.3997Z" fill="black"/>
</svg>
