<svg width="24" height="36" viewBox="0 0 24 36" fill="none" xmlns="http://www.w3.org/2000/svg">
<path d="M23.5294 12.2118C23.5294 16.8819 20.7624 20.9082 16.7793 22.7351C18.4612 21.3497 19.5322 19.248 19.5322 16.896C19.5322 12.7642 16.2259 9.40424 12.112 9.32048C12.0574 9.31671 12.0075 9.31671 11.9529 9.31671C11.8984 9.31671 11.8485 9.31671 11.7939 9.32048C10.2673 9.4033 9.05883 10.6664 9.05883 12.2108V26.6814C9.05883 31.4748 5.16988 35.3638 0.376472 35.3638V12.2118C0.376472 5.8193 5.56047 0.6353 11.9529 0.6353C18.3454 0.6353 23.5294 5.8193 23.5294 12.2118Z" fill="black"/>
<path d="M13.9991 14.2582C15.1294 13.128 15.1294 11.2956 13.9991 10.1654C12.8689 9.03515 11.0365 9.03515 9.90628 10.1654C8.77607 11.2956 8.77607 13.128 9.90628 14.2582C11.0365 15.3884 12.8689 15.3884 13.9991 14.2582Z" fill="black"/>
</svg>
