<svg width="64" height="64" viewBox="0 0 64 64" fill="none" xmlns="http://www.w3.org/2000/svg">
<rect x="0.666667" y="0.666667" width="62.6667" height="62.6667" rx="10" fill="white"/>
<rect x="0.666667" y="0.666667" width="62.6667" height="62.6667" rx="10" stroke="black" stroke-width="1.33333"/>
<path d="M15.5706 21.6786C14.7175 20.8862 14.2918 19.906 14.2918 18.7396C14.2918 17.5732 14.7175 16.5487 15.5706 15.7564C16.4238 14.964 17.522 14.5679 18.869 14.5679C20.216 14.5679 21.2701 14.964 22.1214 15.7564C22.9745 16.5487 23.4002 17.5437 23.4002 18.7396C23.4002 19.9355 22.9745 20.8862 22.1214 21.6786C21.2682 22.4709 20.1847 22.8671 18.869 22.8671C17.5533 22.8671 16.4238 22.4709 15.5706 21.6786ZM22.6815 26.2225V50.5028H15.0105V26.2225H22.6815Z" fill="black"/>
<path d="M48.2248 28.6196C49.8961 30.4346 50.7327 32.9277 50.7327 36.1007V50.0752H43.4449V37.0865C43.4449 35.4871 43.0303 34.2433 42.2011 33.357C41.3719 32.4707 40.2571 32.0285 38.8567 32.0285C37.4562 32.0285 36.3413 32.4726 35.5121 33.357C34.6829 34.2433 34.2683 35.4871 34.2683 37.0865V50.0752H26.9382V26.156H34.2683V29.329C35.0109 28.2714 36.0115 27.4367 37.27 26.8212C38.5268 26.2076 39.942 25.8999 41.5138 25.8999C44.3147 25.8999 46.5516 26.8083 48.2229 28.6214L48.2248 28.6196Z" fill="black"/>
</svg>
