<svg width="64" height="64" viewBox="0 0 64 64" fill="none" xmlns="http://www.w3.org/2000/svg">
<rect x="0.666667" y="0.666667" width="62.6667" height="62.6667" rx="10" fill="white"/>
<rect x="0.666667" y="0.666667" width="62.6667" height="62.6667" rx="10" stroke="black" stroke-width="1.33333"/>
<path d="M52.0686 31.3778C51.5306 28.94 49.3028 27.3572 47.0915 27.8455C46.3397 28.0113 45.6893 28.4001 45.1752 28.9308C42.2011 26.7694 38.138 25.3432 33.6013 25.0723L35.7738 16.0306L42.2158 17.5729C42.3227 19.3344 43.7821 20.7293 45.5695 20.7293C47.3569 20.7293 48.9342 19.2239 48.9342 17.3646C48.9342 15.5054 47.4287 14 45.5695 14C44.2225 14 43.0653 14.7923 42.5272 15.9348L35.5379 14.2616C34.9888 14.1308 34.436 14.468 34.3033 15.019L31.8986 25.0244C26.8386 25.0502 22.2725 26.5151 18.9943 28.859C18.834 28.7097 18.6608 28.5696 18.471 28.4499C16.562 27.2319 13.9251 27.9505 12.5818 30.0548C11.2385 32.1591 11.6955 34.853 13.6045 36.0728C13.7169 36.1447 13.833 36.2092 13.9509 36.2681C13.8753 36.738 13.8311 37.2153 13.8311 37.7017C13.8311 44.7037 21.9813 50.379 32.0332 50.379C42.085 50.379 50.2352 44.7037 50.2352 37.7017C50.2352 37.2116 50.1909 36.7288 50.1135 36.2534C51.6632 35.3523 52.509 33.39 52.0649 31.3797L52.0686 31.3778ZM22.7073 34.7646C22.7073 33.1688 24.0009 31.8772 25.5948 31.8772C27.1888 31.8772 28.4823 33.1707 28.4823 34.7646C28.4823 36.3584 27.1888 37.652 25.5948 37.652C24.0009 37.652 22.7073 36.3584 22.7073 34.7646ZM38.7516 43.8837C37.8652 44.6908 35.4144 46.5684 31.8249 46.6016C31.7917 46.6016 31.7604 46.6016 31.7272 46.6016C28.0916 46.6016 25.6077 44.7037 24.703 43.8819C24.4137 43.6184 24.3915 43.1706 24.655 42.8795C24.9186 42.5902 25.3663 42.5681 25.6575 42.8316C26.4461 43.5484 28.6205 45.2123 31.812 45.1809C34.9133 45.1515 37.0305 43.5281 37.7989 42.8316C38.0882 42.5681 38.5378 42.5902 38.8013 42.8795C39.0648 43.1688 39.0427 43.6184 38.7534 43.8819L38.7516 43.8837ZM38.4033 37.652C36.8076 37.652 35.5158 36.3584 35.5158 34.7646C35.5158 33.1707 36.8094 31.8772 38.4033 31.8772C39.9972 31.8772 41.2908 33.1707 41.2908 34.7646C41.2908 36.3584 39.9972 37.652 38.4033 37.652Z" fill="black"/>
</svg>
