<svg width="64" height="64" viewBox="0 0 64 64" fill="none" xmlns="http://www.w3.org/2000/svg">
<rect x="0.666667" y="0.666667" width="62.6667" height="62.6667" rx="10" fill="white"/>
<rect x="0.666667" y="0.666667" width="62.6667" height="62.6667" rx="10" stroke="black" stroke-width="1.33333"/>
<path d="M50.9151 20.2783C50.0269 21.1757 48.7959 21.7303 47.4323 21.7303C47.2591 21.7303 47.086 21.7211 46.9183 21.7027C48.3409 20.8495 49.4391 19.5136 49.9863 17.9198C49.9863 17.9198 49.9881 17.9198 49.9881 17.9179C50.0637 17.7042 50.1282 17.4886 50.1798 17.2656C49.0539 18.4689 47.5153 19.2833 45.7887 19.4768C45.5233 19.5081 45.2543 19.5228 44.9816 19.5228C44.895 19.5228 44.812 19.521 44.7291 19.5155C44.145 18.9019 43.4485 18.3952 42.6764 18.0229C41.8159 17.6028 40.854 17.3559 39.8386 17.3246C39.7557 17.3191 39.6729 17.3172 39.5863 17.3172C38.7257 17.3172 37.9002 17.4702 37.1373 17.7521C36.942 17.8239 36.7522 17.9013 36.5661 17.9916C34.1485 19.1248 32.4753 21.5811 32.4753 24.4279C32.4753 25.012 32.5472 25.5796 32.678 26.1213C31.9372 26.0918 31.2039 26.0199 30.4852 25.9131C30.2549 25.8762 30.0245 25.8375 29.796 25.7933C27.9626 25.4524 26.2139 24.8665 24.5886 24.0704C23.1348 23.3592 21.7786 22.4821 20.5458 21.4613C19.5084 20.6063 18.5594 19.6518 17.7118 18.6089C17.6749 18.5647 17.638 18.5186 17.603 18.4744C17.5533 18.5499 17.5072 18.6255 17.4667 18.7047C16.8734 19.7421 16.538 20.9417 16.538 22.2205C16.538 22.2591 16.5379 22.3015 16.5398 22.3402C16.5545 23.2984 16.7572 24.2105 17.1202 25.0397C17.275 25.4082 17.463 25.7565 17.6786 26.0863C18.3143 27.0647 19.1822 27.8792 20.2067 28.443C20.2528 28.4725 20.3007 28.4964 20.3486 28.5186C20.2749 28.5333 20.1994 28.5462 20.1238 28.5536C19.9138 28.5812 19.6963 28.5959 19.4789 28.5959C18.388 28.5959 17.3727 28.2551 16.5417 27.6746C16.5361 27.7354 16.5361 27.7981 16.5361 27.8607C16.5361 29.8913 17.3874 31.7229 18.751 33.0146C19.8124 34.028 21.1852 34.7079 22.711 34.9069C22.1618 35.1078 21.5684 35.2165 20.9511 35.2165C20.2823 35.2165 19.641 35.0894 19.055 34.8554C19.9285 37.6948 22.5322 39.777 25.6353 39.8691C23.7392 41.8389 21.0764 43.0624 18.13 43.0624C16.2984 43.0624 14.5773 42.5889 13.0847 41.7597C16.6724 44.8645 21.351 46.7403 26.4681 46.7403C37.7767 46.7403 46.9422 37.5751 46.9422 26.2669C46.9422 25.6441 46.9146 25.0286 46.8593 24.4206C48.7296 23.6817 50.213 22.1725 50.9151 20.2802V20.2783Z" fill="black"/>
</svg>
